<?xml version="1.0" encoding="UTF-8"?>
<svg id="Layer_2" data-name="Layer 2" xmlns="http://www.w3.org/2000/svg" viewBox="0 0 868.4 746.69">
  <defs>
    <style>
      .cls-1 {
        fill: #fd8418;
      }

      .cls-2 {
        fill: #020100;
      }

      .cls-3 {
        fill: #89837f;
      }

      .cls-4 {
        fill: #161616;
      }
    </style>
  </defs>
  <g id="Layer_1-2" data-name="Layer 1">
    <g>
      <path class="cls-4" d="M575.65,194.51c-2.6.54-4.62-.24-5.75,1.38l-190.33-.2c-32.94-27.63-73.19-44.72-115.95-47l-124.63-.81.02,444.1-.13,5.96-27.92.08c-3.02.01-5.36,3.35-5.83,5.53-.66,3.08.58,5.84,2.73,7.37,38.87.47,77.13.83,114.78,1.08,1.04.98,2.65.9,4.18,1.05,3.77.36,5.12,3.27,5.48,6.3.38,3.18-2.39,4.44-4.21,7.47l-146.01-.21c-3.78-8.72-15.57-13.12-23.91-6.44-5.06,4.05-6.9,10.52-5.17,16.25,2.03,6.7,7.89,9.91,14.97,10.11,5.96.17,10.43-2.52,13.84-7.23l82.87-1.13c5.95-2.94,12.1-9.32,20.03-4.14,5.65,3.7,10.19,10.76,6.86,18.6-2.29,5.38-7.79,8.01-13.04,8.45-5.89.49-10.44-3.42-14-7.79l-58.11-.89c-4.32-4.65-9.86-9.75-17.88-7.54-5.97,1.64-11.66,7.13-11.24,15.03.34,6.32,4.9,11.32,10.31,13.06,5.83,1.87,12.4.75,16.31-3.83.69-.79,1.24-3.12,3.27-3.12l91.48-.06c2.02-2.11,3.42-3.9,5.42-5.04,6.08-3.7,14.06-2.76,19.08,2.48,4.72,4.94,5.66,13.6.36,19.23-6.92,7.35-19.32,5.47-24.35-2.63l-150.22-.09c-2.64-5.22-7.27-8.82-12.59-9.18-6.53-.43-12.34,2.23-15.29,8.35-3.3,6.86-.27,15.56,6.18,18.97,6.94,3.68,15.53,2.35,20.57-5.03l186.04-.05c5.04-7.35,14.66-9.71,21.78-4.75,6.27,4.36,7.75,12.48,4.51,18.41-3.69,6.74-11.56,9.15-18.86,6.05-3.05-1.29-4.97-3.68-7.12-5.69h-120.05c-1.54-.02-2.48.64-3.22,1.12-1.38.9-2.3,2.44-2.65,3.66-.71,2.5-.1,4.02,1.57,5.39.81.67,1.26,1.87,3.18,1.87l45.09-.17c2.58.43,5.93,5.28,5.55,7.88-.45,3.12-3.47,6.46-7.65,6.45l-86.95-.22c-3.9-.01-6.93,2.02-7.63,5.7-.48,2.59,1.36,5.61,3.67,7.31h-2.08c-16.42.55-32.92.79-49.47.71l-11.48-.09c-.09-.58-1.06.29-2.06.03L.04,0h258.72c4.05.01,7.24,2.15,11.37.75,86.39,7.57,162.53,36.85,227.35,94.72l27.01,27.02c19.88,22.22,36.57,46.18,51.16,72.02Z"/>
      <path class="cls-3" d="M569.9,195.89l-190.33-.2,190.33.2Z"/>
      <path class="cls-2" d="M41.85,685c0,3.92-3.18,7.09-7.1,7.09s-7.09-3.17-7.09-7.09,3.17-7.1,7.09-7.1,7.1,3.18,7.1,7.1Z"/>
      <g>
        <path class="cls-1" d="M868.3,316.39c-.64-6.25-5.98-11.97-12.92-12.68-7.08-.72-13.23,1.62-16.49,7.78-3.65,1.64-7.09-.57-10.79-.57l-106.61-.04-17.22.73-50.37.11-2.5.22c-7.2,11.51-25.36,5.6-24.11-7.85,1.27-13.79,20.09-15.3,25.28-3.22l2.32.49,111.26-.57c4.4,0,7.63-2.36,8.41-6.09.54-2.6-.58-8.55-4.42-8.58l-43.86-.35c-2.89-.02-4.89-1.93-5.98-3.62-1.57-2.42-1.48-5.8.2-7.87,3.1-3.85,7-1.6,10.79-1.6l75.61-.04c4.94,0,7.62-4.71,7.52-8.3-.12-4.26-3.2-7.53-8.44-7.53l-508.43.05c-3.28,0-4.25,4.27-4.93,6.04-.94,2.46-.25,6.25,2.79,7.9,1.99,1.07,5.29,1.88,7.95,1.89l79.85.32c2.78,0,4.14,5.02,3.77,7.05-.43,2.32-2.85,5.55-5.94,5.58l-44.62.47c-3.44.04-5.4,4.87-5.41,7.23-.02,2.87,2.42,7.33,6.5,7.34l107.14.05c1.91-.12,3.57-1.38,4.97-3.79,28.38-15.96,28.69,34.98.31,18.48-1.69-2.67-3.57-4.03-5.65-4.09l-174.6.48-6.93-6.62c-8.56-5.16-20.94-.23-23.33,9.42-1.24,5.04-.07,9.83,2.68,13.56,2.53,3.44,6.94,5.62,12.14,5.75,6.65.17,12.22-2.99,15.35-8.92l3.81.78,136.48.21c1.95.16,3.8-.88,5.56-3.12,29.12-12.81,26.53,35.64-1.21,18.69-1.43-2.52-3.12-3.88-5.05-4.08l-81.7.33c-4.39-6.13-10.96-8.29-18.16-6.48-5.9,1.48-11.89,7.17-11.98,14.45-.08,6.97,4.97,12.13,10.24,14.31,6.23,2.58,12.77,1.69,17.87-3.1l3.23-5.13,51.26.24c1.97.11,3.85-.96,5.63-3.21,28.37-13.03,28.04,33.51.04,19.67-1.67-2.23-3.46-3.26-5.36-3.1l-78.71.37c-7.37-8.49-18.67-9.17-26.06-.94-4.34,4.85-4.73,13.02-.85,18.51,3.46,4.9,9.2,7.01,14.93,6.44,5.45-.54,10.6-3.46,13.85-8.97l143.75-.15c3.74,0,5.94,2.49,6.18,5.64.17,2.15-2.11,6.24-5.71,6.25l-112.23.36c-4.37.02-5.52,5.08-5.3,8.34.24,3.57,3.84,6.4,8.52,6.4l131.73.13c-5.28,47.44-23.78,92.14-55.29,127.71-33.17,36.71-83.95,59.68-133.26,61.64l-142.59.86h-.22l-.89-.25-27.92.08c-3.02.01-5.36,3.35-5.83,5.53-.66,3.08.58,5.84,2.73,7.37,38.87.47,77.13.83,114.78,1.08,1.04.98,2.65.9,4.18,1.05,3.77.36,5.12,3.27,5.48,6.3.38,3.18-2.39,4.44-4.21,7.47l-146.01-.21c-3.78-8.72-15.57-13.12-23.91-6.44-5.06,4.05-6.9,10.52-5.17,16.25,2.03,6.7,7.89,9.91,14.97,10.11,5.96.17,10.43-2.52,13.84-7.23l82.87-1.13c5.95-2.94,12.1-9.32,20.03-4.14,5.65,3.7,10.19,10.76,6.86,18.6-2.29,5.38-7.79,8.01-13.04,8.45-5.89.49-10.44-3.42-14-7.79l-58.11-.89c-4.32-4.65-9.86-9.75-17.88-7.54-5.97,1.64-11.66,7.13-11.24,15.03.34,6.32,4.9,11.32,10.31,13.06,5.83,1.87,12.4.75,16.31-3.83.69-.79,1.24-3.12,3.27-3.12l91.48-.06c2.02-2.11,3.42-3.89,5.41-5.03,0,0,0,0,0,0,0,0,0,0,0,0,0,0,0,0,0,0,6.08-3.7,14.06-2.76,19.08,2.48,4.72,4.94,5.66,13.6.36,19.23-6.92,7.35-19.32,5.47-24.35-2.63l-150.22-.09c-2.64-5.22-7.27-8.82-12.59-9.18-6.53-.43-12.34,2.23-15.29,8.35-3.3,6.86-.27,15.56,6.18,18.97,6.94,3.68,15.53,2.35,20.57-5.03l186.04-.05c5.04-7.35,14.66-9.71,21.78-4.75,6.27,4.36,7.75,12.48,4.51,18.41-3.69,6.74-11.56,9.15-18.86,6.05-3.05-1.29-4.97-3.68-7.12-5.69h-120.05c-1.54-.02-2.48.64-3.22,1.12-1.38.9-2.3,2.44-2.65,3.66-.71,2.5-.1,4.02,1.57,5.39l3,1.1h0l-2.94-1.08-.06-.02s0,0,0,0h0s0,0,0,0c.81.67,1.26,1.87,3.18,1.87l44.97-.17s.08,0,.12,0c-.04,0-.08,0-.12,0h.11c-1.1-.02-2.19-.04-3.29-.06-7.42-.15-14.84-.27-22.27-.35-1.08-.01-2.17-.03-3.25-.04,9.62.08,19.22.24,28.82.45,2.58.43,5.93,5.28,5.55,7.88-.45,3.12-3.47,6.46-7.65,6.45l-86.95-.22c-3.9-.01-6.93,2.02-7.63,5.7-.48,2.59,1.36,5.61,3.67,7.31.78,0,1.54.84,3.13.84l199.56.03,10.36-.85c72.94-5.97,137.68-24.77,196.67-69.21,16.51-12.44,31.71-25.06,45.8-40.25,28.64-30.89,51.08-65.75,67.06-104.91,13.02-31.9,22.07-64.48,28.55-98.31l4.02-27.32,139.51-.11c3.9,0,6.05-4.59,5.89-7.19-.14-2.41-2.59-7.44-6.17-7.45l-109.36-.41c-2.79-.01-3.85-4.24-3.56-6.04.36-2.24,2.36-5.74,5.74-5.74l147.55-.09c2.99,5.38,7.14,9.35,13.02,10.1,7.87.99,14.69-2.55,17.35-9.44,2.55-6.58-.11-14.92-6.23-18.3-7.79-4.29-14.7-2.38-21.19,2.39-3.78,2.78-9.77.89-14.03.91l-55.81.26c-3.21.02-6.28-1.84-9.4-.16-1.97-.28-3.91.68-5.81,2.88-29.7,11.91-25.7-35.36,1.57-18.98,1.34,2.36,2.94,3.6,4.81,3.69l56.26-.23c1.66,4.52,4.85,6.45,8.64,7.82,7.7,2.8,15.33.74,19.55-5.9,4-6.28,3.39-15.26-3.51-19.91-8.17-5.5-18.15-3.81-24.37,3.86h-92.2c-1.94-.01-3.74,1.16-5.42,3.53-28.88,14.2-27.28-35.47.56-18.64,1.61,2.52,3.36,3.68,5.27,3.49l146.97-.4c1.37,0,2.55-.74,3.16-.46.47.21,7.49,13.33,21.65,7.12,6.45-2.83,9.1-9.28,8.4-16.05ZM254.2,325.06c-3.63-.25-6.73-3.56-6.62-6.56.16-3.9,3.53-6.92,7.61-6.68,3.72.22,6.7,3.3,6.67,6.7-.02,3.58-3.59,6.81-7.66,6.54ZM319.67,349.71c-1.17,2.36-4.78,3.84-8.23,2.57-2.93-1.07-4.57-2.94-5.02-5.22-.46-2.35,1.42-4.96,3.72-6.29,2.81-1.63,5.73-1.13,8.12.56,2.28,1.62,2.89,5.38,1.41,8.38ZM289.77,380.8c-4.65.9-8.03-1.05-9.3-4.76-1-2.91,1.57-6.83,5.1-7.9,3.78-1.15,7.23.61,8.8,4.07,1.35,2.98-.09,7.72-4.6,8.59ZM66.92,639.01c-3.99,0-7.22-3.23-7.22-7.22s3.23-7.22,7.22-7.22,7.22,3.23,7.22,7.22-3.24,7.22-7.22,7.22ZM91.66,665.95c-3.95,0-7.15-3.2-7.15-7.15s3.2-7.15,7.15-7.15,7.15,3.2,7.15,7.15-3.2,7.15-7.15,7.15ZM200.33,662.14s-.05.04-.07.05c-1.01.66-2.01,1.52-3.02,2.6h0c1.03-1.1,2.06-1.98,3.09-2.65ZM33.97,691.95c-3.92,0-7.09-3.17-7.09-7.09s3.17-7.1,7.09-7.1,7.1,3.18,7.1,7.1-3.18,7.09-7.1,7.09ZM807.38,372.65c.64-3.53,4.24-5.82,8.36-5.24,3.63.51,6.29,3.72,6.15,6.79-.19,4.27-3.54,5.88-7.67,5.76-4.36-.12-7.61-3.01-6.84-7.31ZM788.63,341.68c1.99-2.15,5.22-2.56,8.69-1.35,3.15,1.09,4.31,4.22,3.76,6.72-.6,2.7-2.75,4.44-5.88,4.83-3.08.38-5.55-.33-7.06-2.52-1.66-2.41-1.34-5.7.49-7.68ZM858.98,322.31c-2.57,3.47-9.01,3.54-11.8.73-2.55-2.56-1.82-6.78.09-8.71,2.49-2.54,6.54-3.23,9.34-1.4,2.72,1.78,5.19,5.58,2.37,9.38Z"/>
        <path class="cls-1" d="M246.48,706.81c3.89,0,7.05-3.16,7.05-7.05s-3.16-7.05-7.05-7.05-7.05,3.16-7.05,7.05,3.16,7.05,7.05,7.05Z"/>
        <path class="cls-1" d="M218.51,672.91c0-3.91-3.17-7.09-7.09-7.09s-7.09,3.17-7.09,7.09,3.17,7.09,7.09,7.09,7.09-3.17,7.09-7.09Z"/>
        <circle class="cls-1" cx="177.14" cy="646.43" r="7.07" transform="translate(-487.87 562.71) rotate(-67.5)"/>
        <path class="cls-1" d="M394.62,365.33c4.08-.3,6.68-3.57,6.46-6.91-.21-3.28-2.66-5.75-6.17-6.24-4.49-.62-7.71,2.26-8.02,6.19-.34,4.23,2.77,7.33,7.73,6.96Z"/>
        <path class="cls-1" d="M465.41,306.31c0-3.74-3.03-6.78-6.78-6.78s-6.78,3.04-6.78,6.78,3.03,6.79,6.78,6.79,6.78-3.04,6.78-6.79Z"/>
        <path class="cls-1" d="M633.21,305.39c0,3.8,3.08,6.89,6.88,6.89s6.89-3.09,6.89-6.89-3.08-6.88-6.89-6.88-6.88,3.08-6.88,6.88Z"/>
        <path class="cls-1" d="M702.12,357.25c0,3.83,3.11,6.94,6.95,6.94s6.94-3.11,6.94-6.94-3.11-6.95-6.94-6.95-6.95,3.11-6.95,6.95Z"/>
        <path class="cls-1" d="M668.05,327.59c-2.76,4.09-.62,9.13,3.72,10.23,3.81.96,8.48-.62,9.15-5.82.43-3.4-2.7-5.75-4.89-6.58-2.82-1.06-6.14-.58-7.98,2.17Z"/>
        <path class="cls-1" d="M423.73,339.15c4.81-.31,7.39-3.69,6.73-7.74-.5-3.15-3.95-5.67-7.9-5.2-3.86.46-6.63,3.67-6.28,7.05.36,3.47,3.03,6.17,7.45,5.89Z"/>
      </g>
    </g>
  </g>
</svg>