<?xml version="1.0" encoding="UTF-8"?>
<svg id="Layer_2" data-name="Layer 2" xmlns="http://www.w3.org/2000/svg" viewBox="0 0 308.9 93.16">
  <defs>
    <style>
      .cls-1, .cls-2 {
        fill: #fd8418;
      }

      .cls-3 {
        letter-spacing: .13em;
      }

      .cls-4 {
        letter-spacing: .14em;
      }

      .cls-5 {
        letter-spacing: .14em;
      }

      .cls-2 {
        font-family: Geist-Regular, Geist;
        font-size: 12.25px;
      }

      .cls-6 {
        fill: #89837f;
      }

      .cls-7 {
        letter-spacing: .1em;
      }

      .cls-8 {
        letter-spacing: .12em;
      }

      .cls-9 {
        letter-spacing: .11em;
      }

      .cls-10 {
        letter-spacing: .12em;
      }

      .cls-11 {
        letter-spacing: .12em;
      }

      .cls-12 {
        fill: #161616;
      }

      .cls-13 {
        letter-spacing: .05em;
      }

      .cls-14 {
        letter-spacing: .04em;
      }
    </style>
  </defs>
  <g id="Layer_1-2" data-name="Layer 1">
    <g>
      <g>
        <path class="cls-1" d="M30.77,88c.49,0,.88-.39.88-.88s-.39-.88-.88-.88-.88.39-.88.88.39.88.88.88Z"/>
        <path class="cls-1" d="M27.28,83.78c0-.49-.4-.88-.88-.88s-.88.4-.88.88.4.88.88.88.88-.4.88-.88Z"/>
        <path class="cls-1" d="M78.99,37.95c0,.47.38.86.86.86s.86-.39.86-.86-.38-.86-.86-.86-.86.38-.86.86Z"/>
        <path class="cls-1" d="M87.59,44.41c0,.48.39.87.87.87s.87-.39.87-.87-.39-.87-.87-.87-.87.39-.87.87Z"/>
        <path class="cls-1" d="M83.34,40.72c-.34.51-.08,1.14.46,1.28.48.12,1.06-.08,1.14-.73.05-.42-.34-.72-.61-.82-.35-.13-.77-.07-1,.27Z"/>
        <g>
          <path class="cls-6" d="M71.1,24.29l-23.73-.02,23.73.02Z"/>
          <path class="cls-1" d="M49.24,45.42c.51-.04.83-.45.81-.86-.03-.41-.33-.72-.77-.78-.56-.08-.96.28-1,.77-.04.53.35.91.96.87Z"/>
          <path class="cls-1" d="M58.07,38.06c0-.47-.38-.85-.85-.85s-.85.38-.85.85.38.85.85.85.85-.38.85-.85Z"/>
          <path class="cls-1" d="M52.87,42.16c.6-.04.92-.46.84-.97-.06-.39-.49-.71-.99-.65-.48.06-.83.46-.78.88.04.43.38.77.93.73Z"/>
          <path class="cls-12" d="M71.78,24.25c-.32.07-.58-.03-.72.17l-23.73-.02c-4.11-3.45-9.13-5.58-14.46-5.86l-15.54-.1v55.38s-.01.74-.01.74h-3.48c-.38.01-.67.43-.73.7-.08.38.07.73.34.92,4.85.06,9.62.1,14.31.13.13.12.33.11.52.13.47.04.64.41.68.79.05.4-.3.55-.52.93l-18.21-.03c-.47-1.09-1.94-1.64-2.98-.8-.63.51-.86,1.31-.64,2.03.25.84.98,1.24,1.87,1.26.74.02,1.3-.31,1.73-.9l10.33-.14c.74-.37,1.51-1.16,2.5-.52.7.46,1.27,1.34.86,2.32-.29.67-.97,1-1.63,1.05-.73.06-1.3-.43-1.75-.97l-7.25-.11c-.54-.58-1.23-1.22-2.23-.94-.74.2-1.45.89-1.4,1.87.04.79.61,1.41,1.29,1.63.73.23,1.55.09,2.03-.48.09-.1.15-.39.41-.39h11.41c.25-.27.43-.49.68-.64.76-.46,1.75-.34,2.38.31.59.62.71,1.7.04,2.4-.86.92-2.41.68-3.04-.33H6.11c-.33-.66-.91-1.11-1.57-1.16-.81-.05-1.54.28-1.91,1.04-.41.86-.03,1.94.77,2.37.87.46,1.94.29,2.57-.63h23.2c.63-.92,1.83-1.22,2.72-.6.78.54.97,1.56.56,2.3-.46.84-1.44,1.14-2.35.75-.38-.16-.62-.46-.89-.71h-14.97c-.19,0-.31.08-.4.14-.17.11-.29.3-.33.46-.09.31-.01.5.2.67.1.08.16.23.4.23l5.62-.02c.32.05.74.66.69.98-.06.39-.43.81-.95.8l-10.84-.03c-.49,0-.86.25-.95.71-.06.32.17.7.46.91h-.26c-2.05.07-4.1.1-6.17.09H.26c-.01-.08-.13.02-.26,0V0s32.27,0,32.27,0c.51,0,.9.27,1.42.09,10.77.94,20.27,4.6,28.35,11.81l3.37,3.37c2.48,2.77,4.56,5.76,6.38,8.98Z"/>
          <path class="cls-1" d="M106.76,37.92c-.88-.09-1.65.2-2.06.97-.45.21-.88-.07-1.34-.07h-13.3l-2.14.09h-6.28s-.32.04-.32.04c-.89,1.43-3.16.7-3-.98.16-1.72,2.5-1.91,3.15-.4l.29.06,13.87-.07c.55,0,.96-.3,1.05-.76.07-.32-.07-1.07-.55-1.07l-5.47-.04c-.36,0-.61-.24-.74-.46-.2-.3-.19-.72.02-.98.39-.48.87-.2,1.35-.2h9.42c.62,0,.96-.59.94-1.04-.01-.53-.4-.94-1.05-.94h-63.4c-.41.01-.53.54-.61.76-.12.31-.03.78.34.99.25.13.66.23,1,.23l9.95.04c.35.01.52.63.47.88-.05.29-.35.7-.74.7l-5.56.06c-.43,0-.68.61-.68.9,0,.36.31.91.81.92h13.36c.24-.01.45-.17.62-.47,3.54-1.99,3.58,4.36.04,2.3-.21-.33-.44-.5-.7-.51l-21.77.06-.87-.82c-1.07-.65-2.61-.03-2.91,1.17-.15.63-.01,1.23.34,1.69.31.43.86.7,1.51.72.83.02,1.52-.37,1.91-1.11l.48.09,17.02.03c.24.02.47-.11.69-.39,3.63-1.6,3.31,4.45-.15,2.33-.18-.31-.39-.48-.63-.51l-10.19.05c-.54-.77-1.36-1.04-2.26-.81-.74.18-1.48.89-1.5,1.8,0,.87.62,1.51,1.28,1.78.78.32,1.59.21,2.23-.38l.4-.64,6.39.03c.25.01.48-.12.71-.4,3.53-1.63,3.49,4.18,0,2.45-.21-.28-.43-.41-.67-.39l-9.81.05c-.92-1.06-2.33-1.14-3.25-.12-.54.61-.59,1.63-.11,2.31.43.61,1.15.87,1.86.8.68-.06,1.33-.43,1.73-1.12h17.93c.46-.01.74.3.77.69.02.27-.27.78-.71.78l-14,.04c-.54,0-.69.64-.66,1.04.03.45.48.8,1.06.8l16.43.02c-.66,5.91-2.97,11.49-6.9,15.92-4.13,4.58-10.46,7.44-16.61,7.69l-17.78.11h-.03l-.11-.04h-3.48c-.38.02-.67.43-.73.7-.08.39.07.73.34.92,4.85.06,9.62.11,14.31.14.13.12.33.11.52.13.47.04.64.41.69.78.04.4-.3.56-.53.94l-18.2-.03c-.48-1.09-1.95-1.64-2.99-.8-.63.5-.86,1.31-.64,2.02.25.84.98,1.24,1.87,1.26.74.02,1.3-.31,1.72-.9l10.34-.14c.74-.37,1.5-1.16,2.49-.52.71.47,1.27,1.35.86,2.32-.29.68-.97,1-1.63,1.06-.73.06-1.3-.43-1.74-.97l-7.25-.11c-.54-.58-1.23-1.22-2.23-.94-.74.2-1.45.88-1.4,1.87.04.79.61,1.41,1.29,1.63.72.23,1.54.09,2.03-.48.09-.1.15-.39.41-.39h11.4c.26-.27.43-.49.68-.63.31-.19.66-.28,1-.28.51,0,1.01.19,1.38.58.59.62.7,1.7.04,2.4-.86.92-2.41.68-3.03-.33H6.11c-.33-.66-.91-1.11-1.57-1.15-.82-.05-1.54.28-1.91,1.04-.41.86-.03,1.94.77,2.37.87.45,1.94.29,2.56-.63h23.2c.63-.92,1.83-1.22,2.72-.6.78.54.97,1.56.56,2.3-.46.84-1.44,1.14-2.35.75-.38-.16-.62-.46-.89-.71h-14.97c-.19,0-.31.08-.4.14-.17.11-.29.3-.33.46-.09.31-.01.5.2.67.1.08.15.23.39.23l5.61-.02h.02c.32.05.73.66.69.98-.06.39-.44.81-.96.81l-10.84-.03c-.49,0-.86.25-.95.71-.06.32.17.7.46.91.09,0,.19.11.39.11h24.88l1.29-.11c9.1-.74,17.17-3.08,24.53-8.63,2.06-1.55,3.95-3.12,5.71-5.01,3.57-3.86,6.37-8.2,8.36-13.09,1.62-3.97,2.75-8.04,3.56-12.26l.5-3.4,17.4-.02c.48,0,.75-.57.73-.89-.01-.3-.32-.93-.77-.93l-13.63-.05c-.35,0-.48-.53-.45-.76.05-.27.3-.71.72-.71h18.4c.37.66.89,1.15,1.62,1.25.98.12,1.83-.32,2.16-1.18.32-.82,0-1.86-.77-2.28-.97-.54-1.84-.3-2.64.3-.48.34-1.22.11-1.75.11l-6.96.03c-.4,0-.79-.23-1.18-.02-.24-.03-.48.09-.72.36-3.7,1.49-3.2-4.41.2-2.37.16.3.36.45.6.46l7.01-.02c.21.56.61.8,1.08.97.96.35,1.91.09,2.44-.73.49-.79.42-1.91-.44-2.49-1.02-.68-2.26-.47-3.04.48h-11.5c-.24,0-.46.15-.67.44-3.6,1.77-3.41-4.42.07-2.32.2.31.42.46.65.43l18.33-.05c.17,0,.32-.09.39-.05.06.02.94,1.66,2.7.89.81-.36,1.14-1.16,1.05-2.01-.08-.78-.74-1.49-1.61-1.58ZM31.8,40.59c-.46-.04-.84-.45-.83-.82.02-.49.44-.87.95-.84.46.03.83.42.83.84,0,.45-.45.85-.95.82ZM39.96,43.66c-.15.29-.6.48-1.03.32-.36-.13-.57-.37-.62-.65-.06-.29.17-.62.46-.79.35-.2.72-.14,1.01.07.29.21.36.67.18,1.05ZM36.23,47.54c-.58.11-1-.14-1.16-.6-.12-.36.2-.85.64-.98.47-.15.9.07,1.09.5.17.38-.01.97-.57,1.08ZM8.44,79.73c-.49,0-.9-.4-.9-.9s.41-.9.9-.9.9.41.9.9-.4.9-.9.9ZM11.53,83.09c-.49,0-.89-.4-.89-.89s.4-.89.89-.89.89.4.89.89-.4.89-.89.89ZM4.21,86.32c-.42-.06-.76-.42-.76-.87,0-.49.4-.88.88-.88.03,0,.07,0,.1.01.03,0,.05,0,.08.01.4.08.71.43.71.86,0,.49-.4.88-.89.88-.04,0-.07,0-.11-.01h-.01ZM101.82,45.87c.45.06.78.46.76.84-.02.54-.44.74-.95.72-.55-.01-.95-.37-.86-.91.08-.44.53-.73,1.05-.65ZM98.44,42.66c.24-.27.65-.32,1.08-.17.39.14.54.53.47.84-.08.33-.34.55-.73.6-.39.05-.7-.04-.88-.31-.21-.31-.17-.72.06-.96ZM107.21,40.24c-.32.43-1.12.44-1.47.09-.32-.32-.23-.84.01-1.08.31-.32.81-.41,1.16-.18.34.22.65.7.3,1.17Z"/>
        </g>
        <circle class="cls-1" cx="22.12" cy="80.47" r=".88"/>
      </g>
      <g>
        <g>
          <path d="M115.85,28.03h27.88v7.76h-18.37v7.71h17.71v7.76h-17.71v7.82h18.8v7.76h-28.31V28.03Z"/>
          <path d="M149.07,53.93l9.51-.44c.6,4.21,2.95,6.56,7.54,6.56,3.66,0,5.79-1.31,5.79-3.94,0-2.4-1.2-3.77-7.82-5.19-10.28-2.19-14.32-4.97-14.32-11.86s5.63-11.92,15.08-11.92c10,0,15.25,5.58,16.07,13.39l-9.46.44c-.33-3.77-2.73-6.18-6.72-6.18-3.39,0-5.41,1.58-5.41,3.94,0,2.68,1.69,3.83,7.38,4.92,11.1,2.08,14.76,6.01,14.76,12.02,0,7.43-5.85,12.03-15.47,12.03-10.38,0-16.4-5.36-16.94-13.77Z"/>
          <path d="M186.78,28.03h27.88v7.76h-18.37v7.71h17.71v7.76h-17.71v7.82h18.8v7.76h-28.31V28.03Z"/>
          <path d="M221.11,28.03h17.76c8.64,0,14.21,4.54,14.21,11.53,0,4.76-2.68,8.2-6.94,9.56,4.04.55,6.07,2.79,6.34,6.67l.93,11.04h-9.73l-.6-9.46c-.22-2.9-1.48-4.26-5.19-4.26h-7.27v13.72h-9.51V28.03ZM243.35,40.54c0-3.12-2.13-4.75-6.07-4.75h-6.67v9.56h6.78c3.83,0,5.96-1.75,5.96-4.81Z"/>
          <path d="M268.6,35.79h-11.48v-7.76h32.52v7.76h-11.48v31.04h-9.56v-31.04Z"/>
        </g>
        <text class="cls-2" transform="translate(96.59 86.33)"><tspan class="cls-5" x="0" y="0">TEC</tspan><tspan class="cls-10" x="28.32" y="0">H</tspan><tspan class="cls-11" x="38.46" y="0">N</tspan><tspan class="cls-3" x="49.09" y="0">O</tspan><tspan class="cls-7" x="59.83" y="0">L</tspan><tspan class="cls-4" x="68.16" y="0">OGY C</tspan><tspan class="cls-9" x="114.04" y="0">O</tspan><tspan class="cls-11" x="124.6" y="0">N</tspan><tspan class="cls-5" x="135.23" y="0">SU</tspan><tspan class="cls-14" x="155.04" y="0">L</tspan><tspan class="cls-13" x="162.63" y="0">T</tspan><tspan class="cls-5" x="170.32" y="0">AN</tspan><tspan class="cls-8" x="191.06" y="0">T</tspan><tspan class="cls-5" x="199.61" y="0">S </tspan></text>
      </g>
    </g>
  </g>
</svg>