<?xml version="1.0" encoding="UTF-8"?>
<svg id="Layer_2" data-name="Layer 2" xmlns="http://www.w3.org/2000/svg" viewBox="0 0 108.29 93.11">
  <defs>
    <style>
      .cls-1 {
        fill: #fd8418;
      }

      .cls-2 {
        fill: #fff;
      }
    </style>
  </defs>
  <g id="Layer_1-2" data-name="Layer 1">
    <path class="cls-1" d="M30.73,88.14c.49,0,.88-.39.88-.88s-.39-.88-.88-.88-.88.39-.88.88.39.88.88.88Z"/>
    <path class="cls-1" d="M27.25,83.91c0-.49-.4-.88-.88-.88s-.88.4-.88.88.4.88.88.88.88-.4.88-.88Z"/>
    <circle class="cls-1" cx="22.09" cy="80.61" r=".88"/>
    <path class="cls-1" d="M78.96,38.08c0,.47.38.86.86.86s.86-.39.86-.86-.38-.86-.86-.86-.86.38-.86.86Z"/>
    <path class="cls-1" d="M87.55,44.55c0,.48.39.87.87.87s.87-.39.87-.87-.39-.87-.87-.87-.87.39-.87.87Z"/>
    <path class="cls-1" d="M83.3,40.85c-.34.51-.08,1.14.46,1.28.48.12,1.06-.08,1.14-.73.05-.42-.34-.72-.61-.82-.35-.13-.77-.07-1,.27Z"/>
    <g>
      <path class="cls-2" d="M71.78,24.25c-.32.07-.58-.03-.72.17l-23.73-.02c-4.11-3.45-9.13-5.58-14.46-5.86l-15.54-.1v55.38s-.01.74-.01.74h-3.48c-.38.01-.67.43-.73.7-.08.38.07.73.34.92,4.85.06,9.62.1,14.31.13.13.12.33.11.52.13.47.04.64.41.68.79.05.4-.3.55-.52.93l-18.21-.03c-.47-1.09-1.94-1.64-2.98-.8-.63.51-.86,1.31-.64,2.03.25.84.98,1.24,1.87,1.26.74.02,1.3-.31,1.73-.9l10.33-.14c.74-.37,1.51-1.16,2.5-.52.7.46,1.27,1.34.86,2.32-.29.67-.97,1-1.63,1.05-.73.06-1.3-.43-1.75-.97l-7.25-.11c-.54-.58-1.23-1.22-2.23-.94-.74.2-1.45.89-1.4,1.87.04.79.61,1.41,1.29,1.63.73.23,1.55.09,2.03-.48.09-.1.15-.39.41-.39h11.41c.25-.27.43-.49.68-.64.76-.46,1.75-.34,2.38.31.59.62.71,1.7.04,2.4-.86.92-2.41.68-3.04-.33H6.11c-.33-.66-.91-1.11-1.57-1.16-.81-.05-1.54.28-1.91,1.04-.41.86-.03,1.94.77,2.37.87.46,1.94.29,2.57-.63h23.2c.63-.92,1.83-1.22,2.72-.6.78.54.97,1.56.56,2.3-.46.84-1.44,1.14-2.35.75-.38-.16-.62-.46-.89-.71h-14.97c-.19,0-.31.08-.4.14-.17.11-.29.3-.33.46-.09.31-.01.5.2.67.1.08.16.23.4.23l5.62-.02c.32.05.74.66.69.98-.06.39-.43.81-.95.8l-10.84-.03c-.49,0-.86.25-.95.71-.06.32.17.7.46.91h-.26c-2.05.07-4.1.1-6.17.09H.26c-.01-.08-.13.02-.26,0V0s32.27,0,32.27,0c.51,0,.9.27,1.42.09,10.77.94,20.27,4.6,28.35,11.81l3.37,3.37c2.48,2.77,4.56,5.76,6.38,8.98Z"/>
      <path class="cls-1" d="M108.27,39.45c-.08-.78-.75-1.49-1.61-1.58-.88-.09-1.65.2-2.06.97-.46.2-.88-.07-1.35-.07h-13.29s-2.15.09-2.15.09h-6.28s-.31.04-.31.04c-.9,1.44-3.16.7-3.01-.98.16-1.72,2.51-1.91,3.15-.4l.29.06,13.87-.07c.55,0,.95-.29,1.05-.76.07-.32-.07-1.07-.55-1.07l-5.47-.04c-.36,0-.61-.24-.75-.45-.2-.3-.18-.72.02-.98.39-.48.87-.2,1.35-.2h9.43c.62,0,.95-.59.94-1.04-.01-.53-.4-.94-1.05-.94h-63.4c-.41,0-.53.54-.61.76-.12.31-.03.78.35.99.25.13.66.23.99.24l9.96.04c.35,0,.52.63.47.88-.05.29-.36.69-.74.7l-5.56.06c-.43,0-.67.61-.67.9,0,.36.3.91.81.92h13.36c.24,0,.45-.17.62-.47,3.54-1.99,3.58,4.36.04,2.3-.21-.33-.45-.5-.7-.51l-21.77.06-.86-.83c-1.07-.64-2.61-.03-2.91,1.17-.15.63,0,1.23.33,1.69.32.43.87.7,1.51.72.83.02,1.52-.37,1.91-1.11l.48.1,17.02.03c.24.02.47-.11.69-.39,3.63-1.6,3.31,4.44-.15,2.33-.18-.31-.39-.48-.63-.51l-10.19.04c-.55-.76-1.37-1.03-2.26-.81-.74.18-1.48.89-1.49,1.8,0,.87.62,1.51,1.28,1.78.78.32,1.59.21,2.23-.39l.4-.64,6.39.03c.25.01.48-.12.7-.4,3.54-1.62,3.5,4.18,0,2.45-.21-.28-.43-.41-.67-.39l-9.81.05c-.92-1.06-2.33-1.14-3.25-.12-.54.6-.59,1.62-.11,2.31.43.61,1.15.87,1.86.8.68-.07,1.32-.43,1.73-1.12l17.93-.02c.47,0,.74.31.77.7.02.27-.26.78-.71.78l-13.99.04c-.54,0-.69.63-.66,1.04.03.45.48.8,1.06.8l16.43.02c-.66,5.92-2.97,11.49-6.89,15.92-4.14,4.58-10.47,7.44-16.62,7.69l-17.78.11h-.03l-.11-.03h-3.48c-.38.01-.67.43-.73.7-.08.38.07.73.34.92,4.85.06,9.62.1,14.31.13.13.12.33.11.52.13.47.04.64.41.68.79.05.4-.3.55-.52.93l-18.21-.03c-.47-1.09-1.94-1.64-2.98-.8-.63.51-.86,1.31-.64,2.03.25.84.98,1.24,1.87,1.26.74.02,1.3-.31,1.73-.9l10.33-.14c.74-.37,1.51-1.16,2.5-.52.7.46,1.27,1.34.86,2.32-.29.67-.97,1-1.63,1.05-.73.06-1.3-.43-1.75-.97l-7.25-.11c-.54-.58-1.23-1.22-2.23-.94-.74.2-1.45.89-1.4,1.87.04.79.61,1.41,1.29,1.63.73.23,1.55.09,2.03-.48.09-.1.15-.39.41-.39h11.41c.25-.27.43-.49.67-.64,0,0,0,0,0,0,0,0,0,0,0,0,0,0,0,0,0,0,.76-.46,1.75-.34,2.38.31.59.62.71,1.7.04,2.4-.86.92-2.41.68-3.04-.33H6.01c-.33-.66-.91-1.11-1.57-1.16-.81-.05-1.54.28-1.91,1.04-.41.86-.03,1.94.77,2.37.87.46,1.94.29,2.56-.63h23.2c.63-.92,1.83-1.22,2.72-.6.78.54.97,1.56.56,2.3-.46.84-1.44,1.14-2.35.75-.38-.16-.62-.46-.89-.71h-14.97c-.19,0-.31.08-.4.14-.17.11-.29.3-.33.46-.09.31-.01.5.2.67l.37.14h0l-.37-.13h0s0,0,0,0h0s0,0,0,0c.1.08.16.23.4.23l5.61-.02s0,0,.01,0c0,0,0,0-.01,0h.01c-.14,0-.27,0-.41,0-.93-.02-1.85-.03-2.78-.04-.14,0-.27,0-.41,0,1.2,0,2.4.03,3.59.06.32.05.74.66.69.98-.06.39-.43.81-.95.8l-10.84-.03c-.49,0-.86.25-.95.71-.06.32.17.7.46.91.1,0,.19.1.39.1h24.88s1.29-.1,1.29-.1c9.1-.74,17.17-3.09,24.52-8.63,2.06-1.55,3.95-3.12,5.71-5.02,3.57-3.85,6.37-8.2,8.36-13.08,1.62-3.98,2.75-8.04,3.56-12.26l.5-3.41h17.4c.49-.01.75-.59.73-.91-.02-.3-.32-.93-.77-.93l-13.64-.05c-.35,0-.48-.53-.44-.75.04-.28.29-.72.72-.72h18.4c.37.66.89,1.15,1.62,1.25.98.12,1.83-.32,2.16-1.18.32-.82-.01-1.86-.78-2.28-.97-.53-1.83-.3-2.64.3-.47.35-1.22.11-1.75.11l-6.96.03c-.4,0-.78-.23-1.17-.02-.25-.03-.49.08-.72.36-3.7,1.49-3.2-4.41.2-2.37.17.29.37.45.6.46l7.02-.03c.21.56.6.8,1.08.98.96.35,1.91.09,2.44-.74.5-.78.42-1.9-.44-2.48-1.02-.69-2.26-.48-3.04.48h-11.5c-.24,0-.47.14-.68.44-3.6,1.77-3.4-4.42.07-2.32.2.31.42.46.66.44l18.33-.05c.17,0,.32-.09.39-.06.06.03.93,1.66,2.7.89.8-.35,1.13-1.16,1.05-2ZM31.7,40.53c-.45-.03-.84-.44-.83-.82.02-.49.44-.86.95-.83.46.03.84.41.83.84,0,.45-.45.85-.96.82ZM39.86,43.61c-.15.29-.6.48-1.03.32-.37-.13-.57-.37-.63-.65-.06-.29.18-.62.46-.78.35-.2.71-.14,1.01.07.28.2.36.67.18,1.04ZM36.13,47.48c-.58.11-1-.13-1.16-.59-.12-.36.2-.85.64-.99.47-.14.9.08,1.1.51.17.37-.01.96-.57,1.07ZM8.34,79.68c-.5,0-.9-.4-.9-.9s.4-.9.9-.9.9.4.9.9-.4.9-.9.9ZM11.43,83.04c-.49,0-.89-.4-.89-.89s.4-.89.89-.89.89.4.89.89-.4.89-.89.89ZM24.98,82.57s0,0,0,0c-.13.08-.25.19-.38.32h0c.13-.14.26-.25.39-.33ZM4.24,86.28c-.49,0-.88-.4-.88-.88s.4-.89.88-.89.89.4.89.89-.4.88-.89.88ZM100.68,46.47c.08-.44.53-.73,1.04-.65.45.06.78.46.77.85-.02.53-.44.73-.96.72-.54-.01-.95-.38-.85-.91ZM98.34,42.61c.25-.27.65-.32,1.08-.17.39.14.54.53.47.84-.07.34-.34.55-.73.6-.38.05-.69-.04-.88-.31-.21-.3-.17-.71.06-.96ZM107.11,40.19c-.32.43-1.12.44-1.47.09-.32-.32-.23-.85.01-1.09.31-.32.82-.4,1.16-.17.34.22.65.7.3,1.17Z"/>
      <path class="cls-1" d="M49.21,45.55c.51-.04.83-.45.81-.86-.03-.41-.33-.72-.77-.78-.56-.08-.96.28-1,.77-.04.53.35.91.96.87Z"/>
      <path class="cls-1" d="M58.03,38.2c0-.47-.38-.85-.85-.85s-.85.38-.85.85.38.85.85.85.85-.38.85-.85Z"/>
      <path class="cls-1" d="M52.84,42.29c.6-.04.92-.46.84-.97-.06-.39-.49-.71-.99-.65-.48.06-.83.46-.78.88.04.43.38.77.93.73Z"/>
    </g>
  </g>
</svg>